<svg xmlns="http://www.w3.org/2000/svg" width="62" height="62"><g fill="none" fill-rule="evenodd"><circle cx="31" cy="31" r="29.375" fill="#FFF" stroke="#C9DAE1" stroke-width="3.25"/><path d="M30.5 13C20.283 13 12 21.283 12 31.5S20.283 50 30.5 50 49 41.717 49 31.5c-.01-10.213-8.287-18.49-18.5-18.5zm9.15 19.213c-.155.31-.407.562-.718.717v.008L26.14 39.334a1.598 1.598 0 01-2.314-1.439V25.103a1.6 1.6 0 012.314-1.43l12.792 6.395a1.6 1.6 0 01.718 2.145z" fill="#C9DAE1"/><g fill-rule="nonzero" transform="translate(33.847 9.192)"><ellipse cx="9.275" cy="9.365" fill="#FFF" rx="9.275" ry="9.365"/><ellipse cx="9.455" cy="9.183" fill="#53B5FF" rx="7.736" ry="7.811"/></g><path d="M39.908 19.088l3.574 3.412 3.426-3.412m-3.5 3.412v-8" stroke="#FFF" stroke-linecap="round" stroke-linejoin="round" stroke-width="1.9"/></g></svg>